<?xml version="1.0" encoding="UTF-8"?>
<svg xmlns="http://www.w3.org/2000/svg" xmlns:xlink="http://www.w3.org/1999/xlink" width="20px" height="20px" viewBox="0 0 20 20" version="1.1">
<g id="surface1">
<path style=" stroke:none;fill-rule:nonzero;fill:rgb(0%,0%,0%);fill-opacity:1;" d="M 19.796875 13.703125 L 10.457031 4.367188 C 10.324219 4.234375 10.171875 4.167969 9.996094 4.167969 C 9.824219 4.167969 9.671875 4.234375 9.535156 4.367188 L 0.199219 13.703125 C 0.0664062 13.839844 0 13.992188 0 14.164062 C 0 14.339844 0.0664062 14.492188 0.199219 14.625 L 1.203125 15.628906 C 1.335938 15.761719 1.488281 15.828125 1.664062 15.828125 C 1.835938 15.828125 1.988281 15.761719 2.125 15.628906 L 9.996094 7.753906 L 17.871094 15.628906 C 18.003906 15.761719 18.160156 15.828125 18.332031 15.828125 C 18.507812 15.828125 18.660156 15.761719 18.792969 15.628906 L 19.796875 14.625 C 19.929688 14.492188 19.996094 14.339844 19.996094 14.164062 C 19.996094 13.992188 19.929688 13.835938 19.796875 13.703125 Z M 19.796875 13.703125 "/>
</g>
</svg>
